<svg width="19" height="18" viewBox="0 0 19 18" fill="none" xmlns="http://www.w3.org/2000/svg">
<path d="M5.71872 8.09964C5.53109 8.09964 5.34768 8.15242 5.19167 8.25131C5.03566 8.3502 4.91407 8.49075 4.84227 8.6552C4.77046 8.81965 4.75168 9.0006 4.78828 9.17517C4.82489 9.34975 4.91524 9.51011 5.04791 9.63597C5.18058 9.76183 5.34962 9.84754 5.53364 9.88227C5.71766 9.91699 5.90841 9.89917 6.08175 9.83106C6.2551 9.76294 6.40326 9.64759 6.5075 9.49959C6.61174 9.35159 6.66738 9.1776 6.66738 8.9996C6.66738 8.76092 6.56743 8.53201 6.38952 8.36323C6.21161 8.19446 5.97032 8.09964 5.71872 8.09964ZM9.51337 8.09964C9.32574 8.09964 9.14233 8.15242 8.98632 8.25131C8.83031 8.3502 8.70872 8.49075 8.63692 8.6552C8.56512 8.81965 8.54633 9.0006 8.58293 9.17517C8.61954 9.34975 8.70989 9.51011 8.84256 9.63597C8.97524 9.76183 9.14427 9.84754 9.32829 9.88227C9.51232 9.91699 9.70306 9.89917 9.87641 9.83106C10.0498 9.76294 10.1979 9.64759 10.3022 9.49959C10.4064 9.35159 10.462 9.1776 10.462 8.9996C10.462 8.76092 10.3621 8.53201 10.1842 8.36323C10.0063 8.19446 9.76497 8.09964 9.51337 8.09964ZM13.308 8.09964C13.1204 8.09964 12.937 8.15242 12.781 8.25131C12.625 8.3502 12.5034 8.49075 12.4316 8.6552C12.3598 8.81965 12.341 9.0006 12.3776 9.17517C12.4142 9.34975 12.5045 9.51011 12.6372 9.63597C12.7699 9.76183 12.9389 9.84754 13.1229 9.88227C13.307 9.91699 13.4977 9.89917 13.6711 9.83106C13.8444 9.76294 13.9926 9.64759 14.0968 9.49959C14.201 9.35159 14.2567 9.1776 14.2567 8.9996C14.2567 8.76092 14.1567 8.53201 13.9788 8.36323C13.8009 8.19446 13.5596 8.09964 13.308 8.09964ZM9.51337 0C8.26757 0 7.03396 0.232782 5.88299 0.685054C4.73202 1.13733 3.68622 1.80023 2.80531 2.63592C1.02622 4.32367 0.0267394 6.61276 0.0267394 8.9996C0.018446 11.0777 0.776935 13.0931 2.17072 14.6963L0.273392 16.4963C0.141757 16.6228 0.0525867 16.7835 0.0171313 16.9581C-0.0183242 17.1327 0.00152441 17.3133 0.0741725 17.4772C0.152966 17.6392 0.2807 17.7752 0.44116 17.8682C0.601619 17.9611 0.787568 18.0067 0.975402 17.9992H9.51337C12.0294 17.9992 14.4423 17.051 16.2214 15.3633C18.0005 13.6755 19 11.3864 19 8.9996C19 6.61276 18.0005 4.32367 16.2214 2.63592C14.4423 0.948169 12.0294 0 9.51337 0ZM9.51337 16.1993H3.26168L4.14394 15.3623C4.23357 15.279 4.30489 15.1796 4.35374 15.0699C4.40259 14.9602 4.42801 14.8424 4.42854 14.7233C4.42497 14.486 4.32268 14.2595 4.14394 14.0934C2.90174 12.9163 2.12819 11.367 1.95508 9.70948C1.78196 8.05199 2.21999 6.38882 3.19454 5.00335C4.16909 3.61787 5.61986 2.59581 7.29968 2.11128C8.9795 1.62676 10.7844 1.70975 12.407 2.34612C14.0295 2.98249 15.3693 4.13286 16.1981 5.60125C17.0268 7.06964 17.2932 8.7652 16.952 10.399C16.6107 12.0329 15.6828 13.5039 14.3264 14.5616C12.9701 15.6192 11.2691 16.198 9.51337 16.1993Z" fill="#9CA3AF"/>
</svg>
