<svg width="2.4rem" height="1.3rem" viewBox="0 0 24 13" fill="none" xmlns="http://www.w3.org/2000/svg">
<path d="M22.6787 7.7627C22.758 7.56686 22.7978 7.3668 22.7979 7.16406C22.7979 4.61495 16.34 2.54785 8.37402 2.54785C7.73518 2.54786 7.10615 2.56407 6.48926 2.58984C8.13528 2.31884 10.0019 2.16309 11.9805 2.16309C18.6187 2.16312 23.9999 3.88554 24 6.00977C24 6.64175 23.5227 7.23666 22.6787 7.7627Z" fill="url(#paint0_linear_948_277)"/>
<path d="M1.32227 4.25586C1.24272 4.45209 1.20217 4.65231 1.20215 4.85547C1.20215 7.40458 7.66001 9.4707 15.626 9.4707C16.2648 9.4707 16.8939 9.45546 17.5107 9.42969C15.8647 9.70068 13.998 9.85547 12.0195 9.85547C5.38166 9.85544 0.000572943 8.13385 0 6.00977C0 5.37753 0.477611 4.78204 1.32227 4.25586Z" fill="url(#paint1_linear_948_277)"/>
<path d="M16.2086 10.0693C15.1099 11.2675 13.5326 12.0195 11.7789 12.0195C10.0249 12.0194 8.44682 11.2679 7.34821 10.0693C8.72573 10.2415 10.22 10.3369 11.7789 10.3369C13.3392 10.3369 14.833 10.2412 16.2086 10.0693ZM9.35699 9.77832C9.94379 9.81674 10.5462 9.8416 11.1607 9.85156L10.5504 9.83691C10.3483 9.83035 10.1477 9.82223 9.94879 9.8125L9.35699 9.77832ZM14.649 9.74609C13.7293 9.81824 12.768 9.85645 11.7789 9.85645C12.5207 9.85645 13.247 9.83418 13.9517 9.79297L14.649 9.74609ZM16.65 9.52637C16.4351 9.5569 16.217 9.58673 15.9957 9.61328L15.3306 9.68555C15.7827 9.64084 16.2234 9.58712 16.6509 9.52637H16.65ZM7.10016 9.55371L7.64606 9.62305C7.39525 9.59366 7.14848 9.56085 6.90582 9.52637V9.52539C6.97037 9.53456 7.03502 9.54489 7.10016 9.55371ZM11.7789 0C15.0979 0 17.7885 2.69073 17.7886 6.00977C17.7886 7.08188 17.5062 8.08751 17.0142 8.95898C16.4796 8.9785 15.9361 8.99121 15.3853 8.99121C11.8035 8.99121 8.54562 8.56701 6.06696 7.87891C5.87458 7.29055 5.7691 6.66239 5.7691 6.00977C5.76924 2.69083 8.45993 0.000156681 11.7789 0Z" fill="url(#paint2_linear_948_277)"/>
<defs>
<linearGradient id="paint0_linear_948_277" x1="19.9142" y1="6.45612" x2="18.1813" y2="1.03733" gradientUnits="userSpaceOnUse">
<stop stop-color="#6000FF"/>
<stop offset="1" stop-color="#E100FF"/>
</linearGradient>
<linearGradient id="paint1_linear_948_277" x1="4.08584" y1="5.56243" x2="5.81867" y2="10.9812" gradientUnits="userSpaceOnUse">
<stop stop-color="#6000FF"/>
<stop offset="1" stop-color="#E100FF"/>
</linearGradient>
<linearGradient id="paint2_linear_948_277" x1="8.57366" y1="2.80456" x2="14.9841" y2="9.21497" gradientUnits="userSpaceOnUse">
<stop stop-color="#6000FF"/>
<stop offset="1" stop-color="#E100FF"/>
</linearGradient>
</defs>
</svg>
