<svg width="67" height="34" viewBox="0 0 67 34" fill="none" xmlns="http://www.w3.org/2000/svg">
<g opacity="0.3">
<path d="M62.5137 21.4114C62.7354 20.8674 62.8506 20.3125 62.8506 19.7493C62.8499 12.722 45.0473 7.02566 23.0869 7.02563C21.3369 7.02563 19.6131 7.06194 17.9229 7.13208C22.4524 6.38842 27.5864 5.9651 33.0273 5.96509C51.3281 5.96509 66.1641 10.7124 66.1641 16.5686C66.1641 18.3135 64.8469 19.9596 62.5137 21.4114Z" fill="url(#paint0_linear_948_6518)" fill-opacity="0.7"/>
<path d="M3.65039 11.7249C3.42866 12.2688 3.31348 12.8237 3.31348 13.387C3.3142 20.4142 21.1168 26.1106 43.0771 26.1106C44.8272 26.1106 46.5509 26.0743 48.2412 26.0042C43.7117 26.7478 38.5777 27.1711 33.1367 27.1711C14.836 27.1711 8.05346e-07 22.4239 0 16.5676C0 14.8228 1.31714 13.1766 3.65039 11.7249Z" fill="url(#paint1_linear_948_6518)" fill-opacity="0.7"/>
</g>
<path d="M20.259 27.7617C24.0564 28.2363 28.1757 28.498 32.4729 28.498C36.7745 28.498 40.8927 28.2366 44.6848 27.7627C41.6561 31.065 37.307 33.1367 32.4729 33.1367C27.6381 33.1367 23.2878 31.0649 20.259 27.7617ZM19.0344 26.2598C23.1419 26.8436 27.6887 27.1719 32.4729 27.1719C33.4954 27.1719 34.5072 27.157 35.5061 27.1279L36.5002 27.0947C35.1802 27.146 33.8361 27.1729 32.4729 27.1729C27.6891 27.1728 23.1425 26.8455 19.0354 26.2617L19.0344 26.2598ZM45.9065 26.2637C43.5563 26.5977 41.0623 26.848 38.4622 27L37.4856 27.0518C40.4394 26.9082 43.2649 26.6384 45.9084 26.2627L45.9065 26.2637ZM32.4729 0C41.6233 0 49.0413 7.418 49.0413 16.5684C49.0413 19.5247 48.2653 22.2993 46.9084 24.7021C45.4335 24.756 43.9338 24.7871 42.4143 24.7871C32.5401 24.7871 23.5581 23.6225 16.7249 21.7256C16.1936 20.1023 15.9045 18.3692 15.9045 16.5684C15.9045 7.41801 23.3226 1.85649e-05 32.4729 0Z" fill="url(#paint2_linear_948_6518)" fill-opacity="0.7"/>
<defs>
<linearGradient id="paint0_linear_948_6518" x1="54.9078" y1="17.8072" x2="50.1229" y2="2.86327" gradientUnits="userSpaceOnUse">
<stop stop-color="#6000FF"/>
<stop offset="1" stop-color="#E100FF"/>
</linearGradient>
<linearGradient id="paint1_linear_948_6518" x1="11.2563" y1="15.329" x2="16.0412" y2="30.273" gradientUnits="userSpaceOnUse">
<stop stop-color="#6000FF"/>
<stop offset="1" stop-color="#E100FF"/>
</linearGradient>
<linearGradient id="paint2_linear_948_6518" x1="23.6364" y1="7.7319" x2="41.3094" y2="25.4048" gradientUnits="userSpaceOnUse">
<stop stop-color="#6000FF"/>
<stop offset="1" stop-color="#E100FF"/>
</linearGradient>
</defs>
</svg>
