<svg width="18" height="18" viewBox="0 0 18 18" fill="none" xmlns="http://www.w3.org/2000/svg">
<path d="M5 6H13" stroke="#4E4E4E" stroke-width="1.4" stroke-linecap="round"/>
<path d="M5 9H13" stroke="#4E4E4E" stroke-width="1.4" stroke-linecap="round"/>
<path d="M5 12H10" stroke="#4E4E4E" stroke-width="1.4" stroke-linecap="round"/>
<path d="M1 4V14C1 15.6569 2.34315 17 4 17H12.5858C12.851 17 13.1054 16.8946 13.2929 16.7071L15 15L16.7071 13.2929C16.8946 13.1054 17 12.851 17 12.5858V4C17 2.34315 15.6569 1 14 1H4C2.34315 1 1 2.34315 1 4Z" stroke="#4E4E4E"/>
<path d="M12 17V12.1C12 12.0448 12.0448 12 12.1 12H17" stroke="#4E4E4E"/>
</svg>
