<svg width="18" height="4" viewBox="0 0 18 4" fill="none" xmlns="http://www.w3.org/2000/svg">
<path d="M8.99707 0.5C9.82397 0.5 10.4949 1.17022 10.4951 1.99707C10.4951 2.82412 9.82412 3.49512 8.99707 3.49512C8.17022 3.49489 7.5 2.82397 7.5 1.99707C7.50023 1.17036 8.17036 0.500232 8.99707 0.5Z" stroke="#9CA3AF" stroke-linecap="round" stroke-linejoin="round"/>
<path d="M15.9971 0.5C16.824 0.5 17.4949 1.17022 17.4951 1.99707C17.4951 2.82412 16.8241 3.49512 15.9971 3.49512C15.1702 3.49489 14.5 2.82397 14.5 1.99707C14.5002 1.17036 15.1704 0.500232 15.9971 0.5Z" stroke="#9CA3AF" stroke-linecap="round" stroke-linejoin="round"/>
<path d="M1.99707 0.5C2.82397 0.5 3.49489 1.17022 3.49512 1.99707C3.49512 2.82412 2.82412 3.49512 1.99707 3.49512C1.17022 3.49489 0.5 2.82397 0.5 1.99707C0.500232 1.17036 1.17036 0.500232 1.99707 0.5Z" stroke="#9CA3AF" stroke-linecap="round" stroke-linejoin="round"/>
</svg>
