<svg width="26" height="27" viewBox="0 0 26 27" fill="none" xmlns="http://www.w3.org/2000/svg">
<path d="M17.465 14.1136C18.7019 13.1155 19.6047 11.7469 20.0479 10.1981C20.491 8.6493 20.4525 6.99735 19.9375 5.47207C19.4226 3.94679 18.457 2.62404 17.1749 1.68784C15.8929 0.751633 14.3582 0.248535 12.7843 0.248535C11.2105 0.248535 9.67578 0.751633 8.39372 1.68784C7.11167 2.62404 6.14601 3.94679 5.63109 5.47207C5.11617 6.99735 5.07761 8.6493 5.52076 10.1981C5.96391 11.7469 6.86673 13.1155 8.10364 14.1136C5.98418 14.9845 4.13488 16.4289 2.75289 18.2929C1.37089 20.1569 0.508013 22.3705 0.256237 24.6979C0.238012 24.8678 0.252599 25.0398 0.299165 25.2039C0.34573 25.3681 0.423363 25.5212 0.52763 25.6546C0.738207 25.9239 1.04449 26.0964 1.3791 26.1342C1.7137 26.1719 2.04923 26.0718 2.31186 25.8558C2.57449 25.6399 2.74271 25.3258 2.77952 24.9826C3.05655 22.4532 4.23253 20.1172 6.08277 18.4208C7.933 16.7245 10.3278 15.7867 12.8096 15.7867C15.2913 15.7867 17.6861 16.7245 19.5363 18.4208C21.3866 20.1172 22.5626 22.4532 22.8396 24.9826C22.8739 25.3005 23.0218 25.5942 23.2548 25.8068C23.4878 26.0195 23.7893 26.1361 24.1012 26.1342H24.24C24.5707 26.0952 24.873 25.9237 25.081 25.6571C25.2889 25.3904 25.3857 25.0503 25.3502 24.7109C25.0973 22.3769 24.2298 20.1575 22.8407 18.2907C21.4516 16.4238 19.5933 14.9799 17.465 14.1136ZM12.7843 13.1949C11.7862 13.1949 10.8105 12.8914 9.9806 12.3227C9.1507 11.7539 8.50387 10.9456 8.12191 9.99987C7.73994 9.05413 7.64001 8.01347 7.83473 7.00948C8.02945 6.00549 8.51009 5.08327 9.21586 4.35943C9.92164 3.63559 10.8208 3.14266 11.7998 2.94295C12.7787 2.74324 13.7934 2.84574 14.7156 3.23748C15.6377 3.62921 16.4259 4.2926 16.9804 5.14374C17.5349 5.99488 17.8309 6.99555 17.8309 8.01921C17.8309 9.39189 17.2992 10.7084 16.3528 11.679C15.4064 12.6496 14.1228 13.1949 12.7843 13.1949Z" fill="#9CA3AF"/>
</svg>
