<svg width="16" height="16" viewBox="0 0 16 16" fill="none" xmlns="http://www.w3.org/2000/svg">
<path d="M6.4502 1C9.46039 1 11.9004 3.44 11.9004 6.4502C11.9004 7.80014 11.4085 9.03438 10.5957 9.98633L15.002 14.3926L14.3936 15L9.9873 10.5938C9.03516 11.4073 7.80082 11.9004 6.4502 11.9004C3.44005 11.9003 1.00002 9.46034 1 6.4502C1 3.44003 3.44004 1.00004 6.4502 1ZM6.4502 1.86035C3.91533 1.86039 1.86035 3.91532 1.86035 6.4502C1.86037 8.98505 3.91535 11.04 6.4502 11.04C7.56318 11.04 8.58324 10.6434 9.37793 9.98438L9.37402 9.98047L9.98145 9.37207L9.98535 9.37598C10.6436 8.58152 11.04 7.56246 11.04 6.4502C11.04 3.9153 8.98509 1.86035 6.4502 1.86035Z" fill="#9CA3AF"/>
<path d="M6.4502 1L6.4502 0.75L6.45019 0.75L6.4502 1ZM11.9004 6.4502L12.1504 6.4502V6.4502H11.9004ZM10.5957 9.98633L10.4056 9.82399L10.2555 9.99972L10.4189 10.1631L10.5957 9.98633ZM15.002 14.3926L15.1786 14.5695L15.3556 14.3927L15.1787 14.2158L15.002 14.3926ZM14.3936 15L14.2168 15.1768L14.3934 15.3534L14.5702 15.1769L14.3936 15ZM9.9873 10.5938L10.1641 10.417L10.0006 10.2535L9.82491 10.4037L9.9873 10.5938ZM6.4502 11.9004L6.45019 12.1504H6.4502V11.9004ZM1 6.4502L0.75 6.4502L0.75 6.4502L1 6.4502ZM6.4502 1.86035L6.4502 1.61035L6.45019 1.61035L6.4502 1.86035ZM1.86035 6.4502L1.61035 6.4502L1.61035 6.4502L1.86035 6.4502ZM6.4502 11.04L6.45019 11.29H6.4502V11.04ZM9.37793 9.98438L9.53752 10.1768L9.74874 10.0016L9.55471 9.8076L9.37793 9.98438ZM9.37402 9.98047L9.1971 9.80383L9.02061 9.98061L9.19725 10.1572L9.37402 9.98047ZM9.98145 9.37207L10.1582 9.19529L9.9813 9.01837L9.80453 9.19544L9.98145 9.37207ZM9.98535 9.37598L9.80857 9.55275L10.0027 9.74687L10.1779 9.53548L9.98535 9.37598ZM11.04 6.4502L11.29 6.4502V6.4502H11.04ZM6.4502 1V1.25C9.32232 1.25 11.6504 3.57807 11.6504 6.4502H11.9004H12.1504C12.1504 3.30193 9.59846 0.75 6.4502 0.75V1ZM11.9004 6.4502L11.6504 6.45019C11.6504 7.73823 11.1813 8.91545 10.4056 9.82399L10.5957 9.98633L10.7858 10.1487C11.6357 9.15332 12.1504 7.86206 12.1504 6.4502L11.9004 6.4502ZM10.5957 9.98633L10.4189 10.1631L14.8252 14.5694L15.002 14.3926L15.1787 14.2158L10.7725 9.80955L10.5957 9.98633ZM15.002 14.3926L14.8253 14.2157L14.2169 14.8231L14.3936 15L14.5702 15.1769L15.1786 14.5695L15.002 14.3926ZM14.3936 15L14.5703 14.8232L10.1641 10.417L9.9873 10.5938L9.81053 10.7705L14.2168 15.1768L14.3936 15ZM9.9873 10.5938L9.82491 10.4037C8.91608 11.1802 7.73876 11.6504 6.4502 11.6504V11.9004V12.1504C7.86288 12.1504 9.15425 11.6344 10.1497 10.7838L9.9873 10.5938ZM6.4502 11.9004L6.4502 11.6504C3.57812 11.6503 1.25002 9.32227 1.25 6.45019L1 6.4502L0.75 6.4502C0.750022 9.59842 3.30198 12.1503 6.45019 12.1504L6.4502 11.9004ZM1 6.4502H1.25C1.25 3.5781 3.57811 1.25004 6.4502 1.25L6.4502 1L6.45019 0.75C3.30197 0.750045 0.75 3.30195 0.75 6.4502H1ZM6.4502 1.86035L6.45019 1.61035C3.77727 1.6104 1.61035 3.77725 1.61035 6.4502H1.86035H2.11035C2.11035 4.0534 4.0534 2.11039 6.4502 2.11035L6.4502 1.86035ZM1.86035 6.4502L1.61035 6.4502C1.61037 9.12312 3.77728 11.29 6.45019 11.29L6.4502 11.04L6.4502 10.79C4.05342 10.79 2.11037 8.84698 2.11035 6.45019L1.86035 6.4502ZM6.4502 11.04V11.29C7.62369 11.29 8.69971 10.8716 9.53752 10.1768L9.37793 9.98438L9.21834 9.79194C8.46677 10.4152 7.50268 10.79 6.4502 10.79V11.04ZM9.37793 9.98438L9.55471 9.8076L9.5508 9.80369L9.37402 9.98047L9.19725 10.1572L9.20115 10.1612L9.37793 9.98438ZM9.37402 9.98047L9.55094 10.1571L10.1584 9.5487L9.98145 9.37207L9.80453 9.19544L9.1971 9.80383L9.37402 9.98047ZM9.98145 9.37207L9.80467 9.54885L9.80857 9.55275L9.98535 9.37598L10.1621 9.1992L10.1582 9.19529L9.98145 9.37207ZM9.98535 9.37598L10.1779 9.53548C10.8718 8.69797 11.29 7.62299 11.29 6.4502L11.04 6.4502L10.79 6.45019C10.79 7.50194 10.4155 8.46507 9.79285 9.21647L9.98535 9.37598ZM11.04 6.4502H11.29C11.29 3.77723 9.12317 1.61035 6.4502 1.61035V1.86035V2.11035C8.84702 2.11035 10.79 4.05337 10.79 6.4502H11.04Z" fill="#9CA3AF"/>
</svg>
