<svg width="12" height="12" viewBox="0 0 12 12" fill="none" xmlns="http://www.w3.org/2000/svg">
<path d="M7.12176 8.25504H6.76032V5.37024C6.76032 5.24294 6.70975 5.12085 6.61973 5.03083C6.52971 4.94081 6.40762 4.89024 6.28032 4.89024H4.87872C4.75142 4.89024 4.62933 4.94081 4.53931 5.03083C4.44929 5.12085 4.39872 5.24294 4.39872 5.37024C4.39872 5.49754 4.44929 5.61963 4.53931 5.70965C4.62933 5.79967 4.75142 5.85024 4.87872 5.85024H5.80032V8.25504H4.87872C4.75142 8.25504 4.62933 8.30561 4.53931 8.39563C4.44929 8.48565 4.39872 8.60774 4.39872 8.73504C4.39872 8.86234 4.44929 8.98444 4.53931 9.07445C4.62933 9.16447 4.75142 9.21504 4.87872 9.21504H7.12176C7.24906 9.21504 7.37115 9.16447 7.46117 9.07445C7.55119 8.98444 7.60176 8.86234 7.60176 8.73504C7.60176 8.60774 7.55119 8.48565 7.46117 8.39563C7.37115 8.30561 7.24906 8.25504 7.12176 8.25504ZM6 3.84624C6.1424 3.84624 6.28161 3.80401 6.40001 3.7249C6.51841 3.64578 6.6107 3.53333 6.66519 3.40177C6.71969 3.27021 6.73395 3.12544 6.70617 2.98577C6.67838 2.84611 6.60981 2.71782 6.50912 2.61712C6.40842 2.51643 6.28013 2.44786 6.14047 2.42007C6.0008 2.39229 5.85603 2.40655 5.72447 2.46105C5.59291 2.51554 5.48046 2.60783 5.40134 2.72623C5.32223 2.84463 5.28 2.98384 5.28 3.12624C5.28 3.3172 5.35586 3.50033 5.49088 3.63536C5.62591 3.77038 5.80904 3.84624 6 3.84624ZM6 0C4.40925 0.00177866 2.88416 0.634491 1.75932 1.75932C0.634491 2.88416 0.00177866 4.40925 0 6C0.0026653 7.59048 0.635662 9.11506 1.7603 10.2397C2.88494 11.3643 4.40952 11.9973 6 12C7.5913 12 9.11742 11.3679 10.2426 10.2426C11.3679 9.11742 12 7.5913 12 6C12 4.4087 11.3679 2.88258 10.2426 1.75736C9.11742 0.632141 7.5913 0 6 0ZM9.5184 9.60288C8.68583 10.414 7.59828 10.9122 6.44026 11.0128C5.28224 11.1134 4.12506 10.8103 3.16506 10.155C2.20505 9.49957 1.50134 8.53225 1.17332 7.41711C0.845289 6.30197 0.913148 5.10768 1.36538 4.03688C1.81761 2.96607 2.62637 2.08469 3.65443 1.54226C4.6825 0.999838 5.86656 0.829776 7.00573 1.06093C8.1449 1.29209 9.16902 1.91022 9.90435 2.81046C10.6397 3.71071 11.0409 4.83761 11.04 6C11.0416 6.672 10.9077 7.33742 10.6463 7.95648C10.3849 8.57553 10.0012 9.1355 9.5184 9.60288Z" fill="#FF453A"/>
</svg>
